<?xml version="1.0" encoding="utf-8"?>
<!-- Generator: Adobe Illustrator 25.0.1, SVG Export Plug-In . SVG Version: 6.00 Build 0)  -->
<svg version="1.0" id="Layer_1" xmlns="http://www.w3.org/2000/svg" xmlns:xlink="http://www.w3.org/1999/xlink" x="0px" y="0px"
	 viewBox="0 0 282 198" style="enable-background:new 0 0 282 198;" xml:space="preserve">
<style type="text/css">
	.st0{clip-path:url(#SVGID_2_);}
	.st1{fill:#FFFFFF;stroke:#4C4642;stroke-miterlimit:8;}
	.st2{fill:url(#SVGID_3_);}
	.st3{fill:url(#SVGID_4_);}
	.st4{fill:url(#SVGID_5_);}
	.st5{fill:url(#SVGID_6_);}
	.st6{fill:url(#SVGID_7_);}
	.st7{fill:url(#SVGID_8_);}
	.st8{fill:#FFFFFF;}
	.st9{fill:#514A44;stroke:#4C4642;stroke-miterlimit:8;}
	.st10{fill:url(#SVGID_9_);}
	.st11{fill:url(#SVGID_10_);}
	.st12{fill:url(#SVGID_11_);}
	.st13{fill:#968D86;}
	.st14{fill:url(#SVGID_12_);}
	.st15{fill:url(#SVGID_13_);}
	.st16{fill:#544C45;}
	.st17{fill:none;}
</style>
<g>
	<defs>
		<rect id="SVGID_1_" x="52.7" y="38.5" width="176.6" height="121"/>
	</defs>
	<clipPath id="SVGID_2_">
		<use xlink:href="#SVGID_1_"  style="overflow:visible;"/>
	</clipPath>
	<g class="st0">
		<path class="st1" d="M137.8,109.4c0,7.8,0,14.8,0,22.6l-29.9,27.2h-17c-13.4-39.4-26.3-78.7-38-119.1l0.2-1.2L137.8,109.4z"/>
		
			<linearGradient id="SVGID_3_" gradientUnits="userSpaceOnUse" x1="169.8982" y1="555.8351" x2="256.9182" y2="524.1552" gradientTransform="matrix(1 0 0 1 -133 -441)">
			<stop  offset="0" style="stop-color:#7B7269"/>
			<stop  offset="0.4" style="stop-color:#7B7269"/>
			<stop  offset="0.43" style="stop-color:#675F5A"/>
			<stop  offset="0.59" style="stop-color:#C9C0B9"/>
			<stop  offset="1" style="stop-color:#C9C0B9"/>
		</linearGradient>
		<path class="st2" d="M82.7,77.6c9.1,20,23.8,68,25.1,81.6h-17C83.3,139.1,60,59.7,53,38.8L82.7,77.6z"/>
		
			<linearGradient id="SVGID_4_" gradientUnits="userSpaceOnUse" x1="213.395" y1="600.15" x2="213.395" y2="479.85" gradientTransform="matrix(1 0 0 1 -133 -441)">
			<stop  offset="0" style="stop-color:#675F5A;stop-opacity:0.26"/>
			<stop  offset="7.000000e-02" style="stop-color:#675F5A;stop-opacity:0.26"/>
			<stop  offset="0.32" style="stop-color:#ABA6A2;stop-opacity:0"/>
			<stop  offset="0.59" style="stop-color:#B9B5B2;stop-opacity:0"/>
			<stop  offset="0.83" style="stop-color:#FFFFFF;stop-opacity:0.18"/>
			<stop  offset="1" style="stop-color:#FFFFFF;stop-opacity:0.18"/>
		</linearGradient>
		<path class="st3" d="M82.7,77.6c9.1,20,23.8,68,25.1,81.6h-17C83.3,139.1,59.5,60,53,38.8L82.7,77.6z"/>
		
			<linearGradient id="SVGID_5_" gradientUnits="userSpaceOnUse" x1="179.134" y1="548.5696" x2="277.564" y2="491.7396" gradientTransform="matrix(1 0 0 1 -133 -441)">
			<stop  offset="0" style="stop-color:#514A44"/>
			<stop  offset="0.36" style="stop-color:#514A44"/>
			<stop  offset="0.57" style="stop-color:#C6C4C2"/>
			<stop  offset="0.6" style="stop-color:#FFFFFF"/>
			<stop  offset="1" style="stop-color:#FFFFFF"/>
		</linearGradient>
		<path class="st4" d="M137.7,109.3c0,5.1,0,5.1-0.1,10.2c-9.2-5.3-41.2-28.7-55.3-42.1L53,38.8L137.7,109.3z"/>
		
			<linearGradient id="SVGID_6_" gradientUnits="userSpaceOnUse" x1="183.6333" y1="557.662" x2="273.0433" y2="482.642" gradientTransform="matrix(1 0 0 1 -133 -441)">
			<stop  offset="0" style="stop-color:#514A44;stop-opacity:0.75"/>
			<stop  offset="0.49" style="stop-color:#514A44;stop-opacity:0.75"/>
			<stop  offset="0.58" style="stop-color:#C6C4C2;stop-opacity:0"/>
			<stop  offset="1" style="stop-color:#C6C4C2;stop-opacity:0"/>
		</linearGradient>
		<path class="st5" d="M137.7,109.3c0,5.1,0,5.1-0.1,10.2c-9.2-5.3-41.2-28.7-55.3-42.1L53,38.8L137.7,109.3z"/>
		
			<linearGradient id="SVGID_7_" gradientUnits="userSpaceOnUse" x1="169.8973" y1="555.8226" x2="283.3273" y2="514.5426" gradientTransform="matrix(1 0 0 1 -133 -441)">
			<stop  offset="0" style="stop-color:#5E5751"/>
			<stop  offset="0.4" style="stop-color:#5E5751"/>
			<stop  offset="0.5" style="stop-color:#57504A"/>
			<stop  offset="0.59" style="stop-color:#776E69"/>
			<stop  offset="0.7" style="stop-color:#ACA09A"/>
			<stop  offset="1" style="stop-color:#ACA09A"/>
		</linearGradient>
		<path class="st6" d="M99,116.9l38.7,2.7c0,3.8,0,5,0,12.3l-30,27.2h-17l-8.8-81.9L54,40.9l-1-2.1l29.4,38.2L99,116.9z"/>
		
			<linearGradient id="SVGID_8_" gradientUnits="userSpaceOnUse" x1="204.0998" y1="567.717" x2="278.2698" y2="540.7271" gradientTransform="matrix(1 0 0 1 -133 -441)">
			<stop  offset="0" style="stop-color:#988D8A"/>
			<stop  offset="0.11" style="stop-color:#988D8A"/>
			<stop  offset="0.3" style="stop-color:#B4AAA5"/>
			<stop  offset="0.56" style="stop-color:#C0B6B0"/>
			<stop  offset="0.89" style="stop-color:#CEC5BE"/>
			<stop  offset="1" style="stop-color:#CEC5BE"/>
		</linearGradient>
		<path class="st7" d="M91.6,158.3h15.2l30.6-38.3L82.6,78L91.6,158.3z"/>
		<path class="st8" d="M82.6,77.3l54.8,42v0.8L82.8,78.2L82.6,77.3z"/>
		<path class="st9" d="M144.4,109.4c0,7.8,0,14.8,0,22.6l29.9,27.2h16.9c13.4-39.4,26.3-78.7,38-119.1l-0.2-1.2L144.4,109.4z"/>
		
			<linearGradient id="SVGID_9_" gradientUnits="userSpaceOnUse" x1="334.8581" y1="515.2041" x2="249.9681" y2="542.7841" gradientTransform="matrix(-1 0 0 1 494 -430)">
			<stop  offset="0" style="stop-color:#3D3731"/>
			<stop  offset="0.43" style="stop-color:#3D3731"/>
			<stop  offset="0.51" style="stop-color:#5A524C"/>
			<stop  offset="0.57" style="stop-color:#887F7A"/>
			<stop  offset="0.6" style="stop-color:#C7C0B6"/>
			<stop  offset="1" style="stop-color:#C7C0B6"/>
		</linearGradient>
		<path class="st10" d="M199.3,77.6c-9.1,20-23.8,68-25.1,81.6h17c7.5-20,31.9-97.8,37.8-120.3L199.3,77.6z"/>
		
			<linearGradient id="SVGID_10_" gradientUnits="userSpaceOnUse" x1="262.6333" y1="546.662" x2="352.0433" y2="471.642" gradientTransform="matrix(-1 0 0 1 494 -430)">
			<stop  offset="0" style="stop-color:#645C57"/>
			<stop  offset="0.48" style="stop-color:#645C57"/>
			<stop  offset="0.53" style="stop-color:#716863"/>
			<stop  offset="0.56" style="stop-color:#9D928C"/>
			<stop  offset="0.59" style="stop-color:#FFFFFF"/>
			<stop  offset="1" style="stop-color:#FFFFFF"/>
		</linearGradient>
		<path class="st11" d="M144.3,109.3c0,5.1,0,5.1,0.1,10.2c9.2-5.3,41.2-28.7,55.3-42.1L229,38.8L144.3,109.3z"/>
		
			<linearGradient id="SVGID_11_" gradientUnits="userSpaceOnUse" x1="253.5414" y1="579.5095" x2="347.7614" y2="467.2295" gradientTransform="matrix(-1 0 0 1 494 -430)">
			<stop  offset="0" style="stop-color:#918883"/>
			<stop  offset="0.24" style="stop-color:#918883"/>
			<stop  offset="0.32" style="stop-color:#4C433E"/>
			<stop  offset="0.35" style="stop-color:#544B48"/>
			<stop  offset="0.47" style="stop-color:#79706A"/>
			<stop  offset="1" style="stop-color:#79706A"/>
		</linearGradient>
		<path class="st12" d="M183,116.9l-38.7,2.7c0,3.8,0,5,0,12.3l29.9,27.2h17l8.9-81.9L228,40.9l1-2.1l-29.4,38.2L183,116.9z"/>
		<path class="st8" d="M199.4,77.1l-54.8,42.2v0.8l54.5-42L199.4,77.1z"/>
		<path class="st13" d="M199.3,77.4h0.6l-0.3,0.3l-8.7,80.2h-16.8l8.4-40.4l16.6-39.9L199.3,77.4z"/>
		
			<linearGradient id="SVGID_12_" gradientUnits="userSpaceOnUse" x1="113.0083" y1="332.0129" x2="187.3484" y2="304.9529" gradientTransform="matrix(-1 0 0 1 324 -205)">
			<stop  offset="0" style="stop-color:#A19891"/>
			<stop  offset="0.16" style="stop-color:#A19891"/>
			<stop  offset="0.57" style="stop-color:#948983"/>
			<stop  offset="1" style="stop-color:#948983"/>
		</linearGradient>
		<path class="st14" d="M190.4,158.8h-15.2l-30.6-38.5L199.4,78L190.4,158.8z"/>
		
			<linearGradient id="SVGID_13_" gradientUnits="userSpaceOnUse" x1="293.5183" y1="467.007" x2="262.6383" y2="503.817" gradientTransform="matrix(-1 0 0 1 492 -427)">
			<stop  offset="0" style="stop-color:#FFFFFF"/>
			<stop  offset="0.35" style="stop-color:#FFFFFF"/>
			<stop  offset="0.36" style="stop-color:#FFFFFF"/>
			<stop  offset="0.72" style="stop-color:#9C8F8C"/>
			<stop  offset="1" style="stop-color:#9C8F8C"/>
		</linearGradient>
		<path class="st15" d="M228.6,39.4l-1,2.1l-27.8,36h-0.6L228.6,39.4z"/>
		<path class="st16" d="M174.4,158.3h16.8l-0.2,0.9h-17L174.4,158.3z"/>
	</g>
</g>
<rect x="47" y="33" class="st17" width="188" height="132"/>
</svg>
